<svg width="29" height="29" viewBox="0 0 29 29" fill="none" xmlns="http://www.w3.org/2000/svg">
<path fill-rule="evenodd" clip-rule="evenodd" d="M4.13753 4.3242C9.6052 -1.14323 18.4697 -1.14322 23.9373 4.3242C29.4051 9.79192 29.4051 18.6573 23.9373 24.125C18.4697 29.5923 9.60518 29.5924 4.13753 24.125C-1.33019 18.6573 -1.33019 9.79192 4.13753 4.3242ZM15.7879 5.23436C14.7051 4.60919 13.3708 4.60929 12.2879 5.23436L7.12679 8.21385C6.04389 8.83907 5.37679 9.99467 5.37679 11.2451V17.2041C5.37679 18.4545 6.04389 19.6101 7.12679 20.2353L12.2879 23.2148C13.3708 23.8398 14.7051 23.84 15.7879 23.2148L20.9481 20.2353C22.031 19.6101 22.6981 18.4545 22.6981 17.2041V11.2451C22.6981 9.99467 22.031 8.83907 20.9481 8.21385L15.7879 5.23436Z" fill="white"/>
</svg>
