<svg width="266" height="38" viewBox="0 0 266 38" fill="none" xmlns="http://www.w3.org/2000/svg">
<path d="M67.9819 13.7666C73.4496 8.29923 82.3141 8.2992 87.7817 13.7666C93.2492 19.2343 93.2493 28.0997 87.7817 33.5674C82.3142 39.0347 73.4496 39.0345 67.9819 33.5674C62.5142 28.0997 62.5142 19.2343 67.9819 13.7666ZM35.0024 10.124C36.9542 10.1241 38.698 10.4599 40.2339 11.1318C41.7699 11.8038 43.0666 12.732 44.1226 13.916C45.1784 15.068 45.978 16.3965 46.522 17.9004C47.0979 19.4043 47.3862 21.0043 47.3862 22.7002C47.3862 23.1162 47.3804 23.6681 47.3804 24.168V25.2441H27.8169C27.8787 26.3578 28.1299 27.3656 28.5698 28.2676C29.2418 29.5795 30.1701 30.6038 31.354 31.3398C32.57 32.0758 33.946 32.4443 35.4819 32.4443C37.0499 32.4443 38.3783 32.0917 39.4663 31.3877C40.5861 30.6838 41.466 29.7721 42.106 28.6523L46.522 30.8115C46.01 32.0274 45.2104 33.1321 44.1226 34.124C43.0666 35.084 41.7857 35.8517 40.2817 36.4277C38.8098 36.9717 37.194 37.2441 35.4341 37.2441C32.8421 37.2441 30.538 36.6518 28.522 35.4678C26.5381 34.2518 24.9857 32.6202 23.8657 30.5723C22.7458 28.4924 22.1861 26.1722 22.186 23.6123C22.186 20.9885 22.7459 18.6682 23.8657 16.6523C25.0177 14.6364 26.5542 13.0524 28.4741 11.9004C30.3941 10.7164 32.5704 10.124 35.0024 10.124ZM131.714 10.124C133.666 10.124 135.411 10.4598 136.947 11.1318C138.483 11.8038 139.779 12.7321 140.834 13.916C141.89 15.068 142.691 16.3964 143.235 17.9004C143.811 19.4043 144.098 21.0044 144.098 22.7002C144.098 23.1161 144.082 23.5482 144.05 23.9961C144.018 24.444 143.955 24.8602 143.859 25.2441H124.53C124.592 26.3579 124.843 27.3656 125.283 28.2676C125.955 29.5796 126.883 30.6038 128.067 31.3398C129.283 32.0758 130.659 32.4443 132.195 32.4443C133.763 32.4443 135.09 32.0916 136.178 31.3877C137.298 30.6837 138.179 29.7723 138.819 28.6523L143.235 30.8115C142.723 32.0275 141.922 33.132 140.834 34.124C139.779 35.084 138.499 35.8518 136.995 36.4277C135.523 36.9717 133.907 37.2441 132.147 37.2441C129.555 37.2441 127.251 36.6517 125.235 35.4678C123.251 34.2518 121.699 32.6202 120.579 30.5723C119.459 28.4924 118.899 26.1722 118.899 23.6123C118.899 20.9884 119.459 18.6683 120.579 16.6523C121.731 14.6363 123.267 13.0524 125.187 11.9004C127.107 10.7165 129.283 10.1241 131.714 10.124ZM152.417 13.6885C153.24 12.7483 154.232 11.9756 155.392 11.3721C156.992 10.5401 158.816 10.1241 160.864 10.124C163.328 10.124 165.536 10.7164 167.488 11.9004C169.472 13.0844 171.024 14.7 172.144 16.748C173.296 18.796 173.873 21.1002 173.873 23.6602C173.873 26.2201 173.296 28.5243 172.144 30.5723C171.024 32.6201 169.488 34.2518 167.536 35.4678C165.584 36.6517 163.36 37.2441 160.864 37.2441C158.848 37.2441 157.008 36.828 155.344 35.9961C154.06 35.3413 153.005 34.4573 152.176 33.3467V36.668H146.992V0.332031H152.417V13.6885ZM198.642 10.124C201.202 10.124 203.49 10.7164 205.506 11.9004C207.554 13.0524 209.17 14.6523 210.354 16.7002C211.57 18.7162 212.178 21.0362 212.178 23.6602C212.178 26.2841 211.57 28.62 210.354 30.668C209.138 32.716 207.506 34.3316 205.458 35.5156C203.41 36.6675 201.138 37.2441 198.642 37.2441C196.146 37.2441 193.858 36.6518 191.778 35.4678C189.73 34.2838 188.098 32.6679 186.882 30.6201C185.666 28.5722 185.058 26.2521 185.058 23.6602C185.058 21.0362 185.666 18.7162 186.882 16.7002C188.098 14.6523 189.73 13.0524 191.778 11.9004C193.826 10.7164 196.114 10.124 198.642 10.124ZM227.41 10.124C229.169 10.1241 230.817 10.4441 232.353 11.084C233.889 11.692 235.217 12.5399 236.337 13.6279C237.489 14.7159 238.337 15.9799 238.881 17.4199L234.129 19.6279C233.585 18.2841 232.706 17.2121 231.49 16.4121C230.306 15.5802 228.946 15.1641 227.41 15.1641C225.938 15.1641 224.609 15.5316 223.425 16.2676C222.273 16.9716 221.361 17.98 220.689 19.292C220.017 20.5719 219.681 22.0282 219.681 23.6602C219.681 25.2921 220.017 26.7642 220.689 28.0762C221.361 29.3561 222.273 30.3636 223.425 31.0996C224.609 31.8356 225.938 32.2041 227.41 32.2041C228.978 32.2041 230.338 31.8039 231.49 31.0039C232.674 30.172 233.553 29.0681 234.129 27.6924L238.881 29.9482C238.369 31.3241 237.537 32.5724 236.385 33.6924C235.265 34.7802 233.938 35.6442 232.402 36.2842C230.866 36.9241 229.202 37.2441 227.41 37.2441C224.818 37.2441 222.514 36.6517 220.498 35.4678C218.514 34.2518 216.93 32.6201 215.746 30.5723C214.594 28.5244 214.017 26.2042 214.017 23.6123C214.017 21.0523 214.594 18.7482 215.746 16.7002C216.898 14.6522 218.482 13.0524 220.498 11.9004C222.514 10.7164 224.818 10.124 227.41 10.124ZM21.6245 15.1162L8.11377 31.7236H21.6724V36.668H0.696777V32.2041L14.4146 15.5957H1.4165V10.7002H21.6245V15.1162ZM63.9595 15.3076H61.7036C59.9116 15.3076 58.4554 15.8683 57.3354 16.9883C56.2476 18.0763 55.7036 19.6445 55.7036 21.6924V36.668H50.2798V10.7002H55.4634V14.0195C56.0292 12.909 56.7972 12.0739 57.7681 11.5156C59.0479 10.7478 60.5838 10.3643 62.3755 10.3643H63.9595V15.3076ZM106.757 10.124C108.677 10.124 110.373 10.5402 111.845 11.3721C113.317 12.2041 114.469 13.3561 115.301 14.8281C116.133 16.3001 116.549 17.996 116.549 19.916V36.668H111.173V21.3564C111.173 20.0444 110.934 18.9399 110.454 18.0439C109.974 17.116 109.285 16.4116 108.389 15.9316C107.525 15.4198 106.533 15.1641 105.414 15.1641C104.294 15.1641 103.285 15.4196 102.389 15.9316C101.525 16.4116 100.853 17.116 100.374 18.0439C99.8935 18.9719 99.6538 20.0765 99.6538 21.3564V36.668H94.23V10.7002H99.4136V13.8477C100.03 12.8302 100.845 12.0205 101.862 11.4199C103.27 10.556 104.902 10.1241 106.757 10.124ZM182.172 36.668H176.749V0.332031H182.172V36.668ZM247.207 21.958L258.103 10.7002H264.871L255.079 21.1162L265.303 36.668H259.063L251.103 24.6436L247.207 28.7842V36.668H241.783V0.332031H247.207V21.958ZM79.6323 14.6768C78.5496 14.0516 77.2152 14.0518 76.1323 14.6768L70.9712 17.6562C69.8883 18.2815 69.2212 19.4371 69.2212 20.6875V26.6465C69.2213 27.8968 69.8883 29.0525 70.9712 29.6777L76.1323 32.6572C77.2151 33.2821 78.5496 33.2823 79.6323 32.6572L84.7925 29.6777C85.8752 29.0525 86.5424 27.8968 86.5425 26.6465V20.6875C86.5425 19.4372 85.8752 18.2815 84.7925 17.6562L79.6323 14.6768ZM160.336 15.1641C158.833 15.1641 157.472 15.5317 156.256 16.2676C155.072 17.0036 154.128 18.012 153.424 19.292C152.752 20.572 152.417 22.0282 152.417 23.6602C152.417 25.2921 152.752 26.7642 153.424 28.0762C154.128 29.3561 155.072 30.3637 156.256 31.0996C157.472 31.8356 158.832 32.2041 160.336 32.2041C161.872 32.2041 163.233 31.8356 164.417 31.0996C165.6 30.3637 166.528 29.3559 167.2 28.0762C167.904 26.7642 168.256 25.2921 168.256 23.6602C168.256 22.0282 167.904 20.572 167.2 19.292C166.528 18.0121 165.6 17.0035 164.417 16.2676C163.233 15.5316 161.872 15.1641 160.336 15.1641ZM198.642 15.1641C197.138 15.1641 195.778 15.5317 194.562 16.2676C193.378 17.0036 192.434 18.012 191.73 19.292C191.058 20.572 190.722 22.0282 190.722 23.6602C190.722 25.2921 191.058 26.7642 191.73 28.0762C192.434 29.356 193.378 30.3636 194.562 31.0996C195.778 31.8356 197.138 32.2041 198.642 32.2041C200.178 32.2041 201.538 31.8356 202.722 31.0996C203.906 30.3636 204.834 29.3561 205.506 28.0762C206.21 26.7642 206.562 25.2921 206.562 23.6602C206.562 22.0282 206.21 20.572 205.506 19.292C204.834 18.012 203.906 17.0036 202.722 16.2676C201.538 15.5316 200.178 15.1641 198.642 15.1641ZM35.0024 14.6836C33.5626 14.6836 32.2825 15.0522 31.1626 15.7881C30.0426 16.4921 29.1778 17.5164 28.5698 18.8604C28.2812 19.4832 28.0773 20.1712 27.9546 20.9238H41.6528C41.6191 20.1327 41.4506 19.3966 41.146 18.7158C40.6341 17.468 39.8343 16.492 38.7466 15.7881C37.6907 15.0521 36.4423 14.6836 35.0024 14.6836ZM131.714 14.6836C130.274 14.6836 128.994 15.0521 127.875 15.7881C126.755 16.4921 125.891 17.5164 125.283 18.8604C124.994 19.4832 124.789 20.1711 124.667 20.9238H138.366C138.332 20.1327 138.163 19.3966 137.859 18.7158C137.347 17.4678 136.546 16.4921 135.458 15.7881C134.402 15.0521 133.154 14.6836 131.714 14.6836Z" fill="white"/>
</svg>
